<?xml version="1.0" encoding="UTF-8" standalone="no"?>
<!-- Created with Inkscape (http://www.inkscape.org/) -->

<svg
   xmlns:dc="http://purl.org/dc/elements/1.1/"
   xmlns:cc="http://creativecommons.org/ns#"
   xmlns:rdf="http://www.w3.org/1999/02/22-rdf-syntax-ns#"
   xmlns:svg="http://www.w3.org/2000/svg"
   xmlns="http://www.w3.org/2000/svg"
   xmlns:sodipodi="http://sodipodi.sourceforge.net/DTD/sodipodi-0.dtd"
   xmlns:inkscape="http://www.inkscape.org/namespaces/inkscape"
   width="199.13742mm"
   height="123.12981mm"
   viewBox="0 0 199.13742 123.12981"
   version="1.1"
   id="svg8"
   inkscape:version="0.92.5 (2060ec1f9f, 2020-04-08)"
   sodipodi:docname="demoFile.svg">
  <defs
     id="defs2" />
  <sodipodi:namedview
     id="base"
     pagecolor="#ffffff"
     bordercolor="#666666"
     borderopacity="1.0"
     inkscape:pageopacity="0.0"
     inkscape:pageshadow="2"
     inkscape:zoom="1.4"
     inkscape:cx="662.71881"
     inkscape:cy="123.09767"
     inkscape:document-units="mm"
     inkscape:current-layer="layer1"
     showgrid="false"
     inkscape:window-width="3696"
     inkscape:window-height="2032"
     inkscape:window-x="144"
     inkscape:window-y="54"
     inkscape:window-maximized="1"
     fit-margin-top="0"
     fit-margin-left="0"
     fit-margin-right="0"
     fit-margin-bottom="0" />
  <metadata
     id="metadata5">
    <rdf:RDF>
      <cc:Work
         rdf:about="">
        <dc:format>image/svg+xml</dc:format>
        <dc:type
           rdf:resource="http://purl.org/dc/dcmitype/StillImage" />
        <dc:title></dc:title>
      </cc:Work>
    </rdf:RDF>
  </metadata>
  <g
     inkscape:label="Layer 1"
     inkscape:groupmode="layer"
     id="layer1"
     transform="translate(-4.4026918,-3.574414)">
    <path
       style="fill:#000000;stroke-width:0.33458987"
       d="m 52.429074,126.35053 c -0.822969,-0.22595 -1.99006,-1.04041 -3.231319,-2.25498 l -1.943057,-1.90129 -0.527397,1.10598 c -0.290073,0.60829 -0.732352,1.10598 -0.982841,1.10598 -0.655995,0 -1.417116,-0.9804 -1.879626,-2.42112 -0.43483,-1.35449 -0.853876,-1.80155 -1.185593,-1.26483 -0.115584,0.18703 -0.660156,0.34005 -1.21015,0.34005 -1.182002,0 -2.383465,-1.1504 -2.877794,-2.75549 l -0.336406,-1.0923 -0.36194,0.88763 c -0.874337,2.14422 -1.670156,1.52549 -2.863147,-2.22598 -1.595006,-5.01561 -1.989899,-7.54951 -1.58413,-10.16474 0.48879,-3.15033 0.452129,-5.19832 -0.132346,-7.394697 -0.428267,-1.609357 -0.427773,-2.036408 0.0038,-3.490284 0.642981,-2.165145 0.621925,-3.536948 -0.06993,-4.555604 -0.758583,-1.116912 -3.420523,-4.234385 -6.464497,-7.570757 -1.380186,-1.512768 -2.803447,-3.324521 -3.162793,-4.026117 -0.359359,-0.701595 -1.439775,-2.480156 -2.400916,-3.952355 -2.641428,-4.045884 -6.014815,-10.717577 -7.1153,-14.072223 -0.539817,-1.645522 -1.483796,-4.949208 -2.097743,-7.341526 -1.084715,-4.226721 -1.116267,-4.540503 -1.116267,-11.101453 0,-5.976263 -0.05767,-6.70068 -0.501878,-6.30688 -0.8704942,0.771665 -3.0094734,1.535363 -3.0249141,1.080008 -0.018075,-0.533092 -1.993932,1.792204 -1.993932,2.346562 0,0.23698 -0.1681155,0.430876 -0.3735743,0.430876 -0.4253579,0 -0.1135592,-3.904816 0.424827,-5.320965 0.314304,-0.826665 0.3097895,-0.829308 -0.368411,-0.215542 -0.8664992,0.784168 -0.8657153,0.507469 0.00379,-1.196143 0.3795039,-0.743904 1.1052782,-1.590882 1.6128219,-1.882171 L 7.5912545,30.61055 7.1158566,28.902561 c -0.8851002,-3.179973 0.7449215,-6.298762 3.8439024,-7.354692 2.756518,-0.93924 4.174998,-0.540265 5.432837,1.528082 l 0.593611,0.976119 1.853954,-2.294603 c 2.582221,-3.195958 3.567122,-4.124565 6.173167,-5.820321 4.33402,-2.820144 9.740264,-4.639535 19.168463,-6.4508539 3.404445,-0.6540568 7.168578,-1.4282308 8.364742,-1.7203906 4.783999,-1.1684889 8.871043,-1.749972 13.659137,-1.943352 2.763523,-0.1116131 5.751779,-0.340796 6.640547,-0.5092914 0.888766,-0.1685004 5.003672,-0.476708 9.144222,-0.6849129 4.140538,-0.2082023 8.431663,-0.5192767 9.535816,-0.6912763 5.878985,-0.9158059 16.865285,-0.051634 26.432575,2.0791615 8.28821,1.8459191 11.41699,2.457516 15.89302,3.1066801 2.11628,0.306929 4.60062,0.7632795 5.52074,1.0141185 0.92012,0.250835 2.39261,0.553073 3.27215,0.671639 0.87958,0.118568 2.9875,0.912343 4.68428,1.763954 1.69676,0.851608 4.5438,2.039405 6.32674,2.639545 1.78296,0.60014 4.11671,1.536495 5.18615,2.08079 2.22195,1.130871 11.18469,6.321363 14.62833,8.471554 3.30581,2.064125 9.21035,7.82139 11.13108,10.85341 l 1.57714,2.48966 2.52778,-2.502541 c 1.63258,-1.616299 3.12023,-2.752313 4.20072,-3.20783 0.99741,-0.420483 2.51748,-1.538493 3.76433,-2.768652 l 2.09138,-2.063366 0.72424,0.724248 c 0.64194,0.641943 0.76345,1.301986 1.06925,5.808213 0.3024,4.45589 0.27442,5.353076 -0.22633,7.2623 -0.8371,3.191708 -2.35496,5.581044 -5.52125,8.691411 -2.35472,2.313117 -2.77671,2.886574 -2.58536,3.513193 0.12585,0.411878 0.30664,3.383755 0.40191,6.604188 0.16397,5.539466 0.21384,5.891414 0.92593,6.524495 0.87246,0.775699 2.62579,3.676774 4.24588,7.025311 0.72588,1.500325 1.85633,3.069141 3.14778,4.368483 2.5541,2.56966 3.08673,4.024636 2.19046,5.983931 -0.90893,1.987028 -3.60543,4.854148 -5.21357,5.543478 -0.94711,0.405984 -1.87541,0.543029 -2.8977,0.427799 -1.0149,-0.114453 -1.8433,0.0064 -2.54678,0.369615 -0.57341,0.296534 -1.41978,0.539145 -1.88082,0.539145 -0.46104,0 -1.3929,0.376419 -2.07086,0.836478 -1.53258,1.040039 -3.24104,1.082933 -6.81254,0.17105 -3.30451,-0.843711 -10.96818,-2.263871 -13.57754,-2.516046 -6.12914,-0.592346 -9.33175,-1.457275 -15.37918,-4.1535 -3.58773,-1.599582 -5.37444,-1.752092 -6.49924,-0.554803 -0.4183,0.445266 -1.24183,2.214415 -1.83007,3.93144 -0.58823,1.717025 -1.2311,3.422997 -1.42857,3.791043 -0.19748,0.36805 -0.77723,2.250113 -1.28835,4.182374 -1.2866,4.863822 -1.26066,7.485812 0.12038,12.164972 0.94041,3.18621 1.28188,3.87394 2.77699,5.5929 1.10737,1.27317 1.63349,2.14569 1.50136,2.48997 -0.11191,0.29149 -1.04831,0.9168 -2.081,1.38958 -1.43643,0.65763 -2.22684,0.82027 -3.36359,0.69214 -1.72052,-0.19393 -2.53018,-0.82878 -3.72788,-2.92294 -0.47373,-0.82835 -0.91137,-1.57036 -0.97255,-1.64894 -0.0612,-0.0785 -0.31372,0.13409 -0.56125,0.4726 -0.75291,1.0297 -1.46046,0.38153 -1.88889,-1.73044 -0.21704,-1.06986 -0.70064,-2.62274 -1.07465,-3.45084 -0.5576,-1.23466 -0.6757,-2.16809 -0.65611,-5.18614 0.0131,-2.02427 -0.0903,-4.28276 -0.2299,-5.01885 l -0.25381,-1.338365 -0.37655,1.679805 c -0.26639,1.18836 -0.28417,2.98278 -0.0608,6.13338 0.38886,5.48455 1.01997,8.62247 2.07269,10.30567 1.93997,3.10185 3.97766,7.2017 3.80413,7.65394 -0.10395,0.27088 -0.51589,0.49251 -0.91544,0.49251 -0.39955,0 -0.91101,0.25242 -1.1366,0.56093 -0.27839,0.38072 -1.05114,0.60729 -2.40529,0.70525 -2.86363,0.20712 -4.61668,-0.72778 -5.56252,-2.96652 -0.38238,-0.90506 -0.78291,-1.64556 -0.89006,-1.64556 -0.1071,0 -0.3652,0.45135 -0.57343,1.00301 -0.47275,1.25248 -1.38508,1.65674 -1.9611,0.86899 -0.2328,-0.31837 -0.52967,-1.50972 -0.65971,-2.64744 -0.13005,-1.13771 -0.52495,-3.19781 -0.87758,-4.57799 -0.68763,-2.69146 -0.86331,-4.23831 -1.095,-9.64155 -0.1479,-3.44952 -0.1491,-3.45363 -1.96146,-6.6918 -0.99743,-1.782093 -1.92431,-3.541289 -2.05977,-3.909337 -0.13545,-0.368046 -0.4592,-2.764864 -0.71944,-5.326269 -0.26024,-2.561393 -0.55351,-4.737441 -0.65172,-4.835635 -0.0983,-0.09826 -0.88835,0.09661 -1.75589,0.432831 -0.86753,0.336266 -2.93242,0.954159 -4.58864,1.373097 -1.65622,0.418933 -3.39115,0.910378 -3.85542,1.092113 -0.46427,0.181721 -2.02096,0.330413 -3.45929,0.330413 -1.43835,0 -2.772937,0.157772 -2.965749,0.350582 -0.203422,0.203421 -1.016074,0.271774 -1.935912,0.162824 -1.510404,-0.178875 -5.758115,0.36142 -6.503553,0.827246 -0.193432,0.120892 -2.110782,0.186828 -4.260789,0.146573 -3.647664,-0.06829 -3.923282,-0.02844 -4.121266,0.595333 -0.241055,0.75946 -1.170859,0.915297 -1.170859,0.196226 0,-0.692704 -7.363717,-0.908887 -7.894049,-0.23175 -0.30756,0.392683 -0.52062,0.358082 -1.338367,-0.217397 -0.743959,-0.523552 -1.719022,-0.732132 -4.148176,-0.887349 -3.02178,-0.193078 -3.203147,-0.166399 -3.744319,0.551056 L 62.958408,91.781842 62.664984,90.98864 C 62.41784,90.320539 61.856325,90.066002 59.104058,89.374524 55.983653,88.590566 55.816825,88.58055 55.398788,89.152259 55.0279,89.659485 54.878867,89.682706 54.422954,89.30434 54.127003,89.058718 53.88486,88.679087 53.88486,88.460704 c 0,-0.21838 -0.729305,-0.630274 -1.620661,-0.915314 l -1.620677,-0.518278 -0.513944,2.899535 c -0.282662,1.594725 -0.925884,3.770288 -1.429368,4.834582 l -0.915438,1.935077 0.412106,4.402794 c 0.32141,3.43393 0.694654,5.26523 1.696095,8.32201 1.871864,5.71352 2.696438,7.23107 5.667078,10.42968 3.332666,3.58843 3.741849,4.85744 1.939631,6.01552 -1.053721,0.6771 -3.512646,0.91193 -5.070381,0.48422 z M 13.148324,27.728963 c 1.031148,-0.516861 1.277187,-1.910727 0.396892,-2.248525 -0.966085,-0.370725 -2.153485,0.454814 -2.153485,1.497201 0,0.942115 0.281004,1.511662 0.648267,1.313885 0.10357,-0.05574 0.602262,-0.308899 1.108326,-0.562561 z"
       id="path3730"
       inkscape:connector-curvature="0"
       sodipodi:nodetypes="ccccsscscccccsccscccssccsscccsccsccscccscsssccccccccccssccscccccccscccscccccccccccccccccccccccscscccsccsccccsccccssccscscccccccccscccccccccccccscc" />
  </g>
</svg>
