<?xml version="1.0" encoding="utf-8"?>
<!-- Generator: Adobe Illustrator 24.3.0, SVG Export Plug-In . SVG Version: 6.00 Build 0)  -->
<svg version="1.1" id="Layer_1" xmlns="http://www.w3.org/2000/svg" xmlns:xlink="http://www.w3.org/1999/xlink" x="0px" y="0px"
	 viewBox="0 0 1600 1200" style="enable-background:new 0 0 1600 1200;" xml:space="preserve">
<style type="text/css">
	.st0{opacity:0.1;fill:#137D9F;}
	.st1{opacity:0.1;fill:#0ABBAB;}
	.st2{opacity:0.1;fill:#B2CD0D;}
	.st3{opacity:0.1;fill:#EAE9F9;}
	.st4{opacity:0.1;fill:#FE9572;}
	.st5{opacity:0.1;fill:#F75F68;}
	.st6{opacity:0.1;fill:#7158D1;}
	.st7{opacity:0.1;fill:#FFD300;}
	.st8{opacity:0.1;fill:#1DAACC;}
</style>
<desc>Created with Sketch.</desc>
<path class="st0" d="M-279.3,116.8c49.6,132.3,88.2,269.3,127.4,405c41.8,144.6,41.9,296.8,57.6,444.5c9.4,89,27.9,174.9,86.8,245.6
	c41.3,49.5,90.7,82.9,152.2,102.1c85.6,26.8,178.6,27.4,262.5,58.7c19.4,7.2,39,17,51.9,33.8c10.7,14,15.8,31.6,22.9,47.1
	c6.3,13.8,17,19.3,30.4,20.8c41.2,4.4,94-20.3,136.7-27.9c9-1.6,20.6-3.3,28.5-8c5.7-3.4,5.5-8.2,5.2-12.4
	c-2.4-32.7-0.9-66.9-9.1-99.1c-9.4-36.9-32.8-62.4-64.8-78.4c-54.9-27.4-125.7-29.5-188-40.4c-61.5-10.8-123.5-22.5-182.4-43.7
	c-49.9-17.9-96.7-43.1-136-79c-49.3-45-75.9-107.1-92.2-169.9C-29.9,761.4-26.5,596-64.9,439.4C-84,361.5-108.1,284.2-132,207.6
	c-20.4-65.6-42.2-131.7-71.6-193.3c-8.3-17.3-18.4-40.7-36.8-50c-8.9-4.5-18-3.7-26.6-2.1c-12.8,2.4-25.7,8.2-33.4,19
	C-325.9,17-294.3,81.6-279.3,116.8"/>
<path class="st1" d="M-181.4,10.8c30.4,70.3,54.3,143.3,76.7,216.4c14.8,48,28.9,96.3,43.2,144.5c21.8,73.5,34.9,148.9,45.5,224.6
	C-4.4,678.6,5,761.9,21.5,842.9c18.8,91.9,49,179.6,124.3,241.3c59.8,49,133.2,76,207.4,94.8c46.1,11.7,92.9,20.4,139.6,28.6
	c43.6,7.7,89.3,11.7,130.5,29c55.4,23.3,81.7,69.1,108.6,119.1c10,18.5,26.5,31.3,44.5,40.7c43.1,22.7,93.6,32.9,142.2,40.9
	c6.4,1,12.9,2.1,19.8,2.9c13.6,1.5,27.2,2,40.9,1.4c1,0,2-0.1,2.9-0.1c9.6-0.7,20.9-1.3,29.4-6.7c5-3.2,4.8-8.5,3.9-13.7
	c-17.6-97.7-41.8-200-127.6-257.5c-51-34.2-114.9-38.8-175.1-48.3c-69-10.8-138.3-21.9-206.3-36.6C423,1060.7,337,1038,262.2,994.5
	C183.9,949.1,142,880.5,113.4,797.4C76.8,690.9,61.2,577.3,39.8,466.3c-21.4-110.6-54.1-217.8-87.7-325
	c-20.2-64.5-41.3-130-70.5-190c-8.5-17.5-18.4-34.8-32.9-48.5c-10.4-9.9-23.4-19.7-37.6-23c-9-2.1-22.4,0.8-28.1,8.7
	c-10.9,15-1.1,38.1,4.7,53.2C-203.4-34.8-192.2-12-181.4,10.8"/>
<path class="st2" d="M-112.1-69.6C-80.9-6.7-57.9,59.5-36.5,126.1c14.7,46.1,28.7,92.5,42.9,138.8c23,74.9,38.5,151.6,53.8,228.4
	c16.7,83.8,34.4,168,60.3,249.1c15.2,47.7,33.7,95.3,60.2,138.3c27,43.9,67.5,75.5,112.3,100c91.2,49.9,195.7,73.9,296.8,94.1
	c54.2,10.8,108.7,19.8,163.2,28.5c50.8,8.2,103.4,12.7,150.3,35.8c74.3,36.5,117,107.4,156.5,176.7c13.4,23.5,31,43.7,50.7,61.7
	c43.2,39.4,89,70.7,144.7,90.8c7,2.7,14.1,4.9,21.3,6.6c12.6,2.7,26,4.6,39,2c0.8-0.1,1.5-0.3,2.2-0.5c9.5-2.5,13.7-7.6,15.9-14.8
	c1.4-4.7-0.3-11-2.8-17.5c-45.1-119.3-89.4-254.3-194.9-331.8c-54.4-40-119.9-45.5-185.8-55c-81.8-11.8-163.8-23.6-244.9-38.5
	c-103.8-19.1-210.9-41.1-307.5-85.8c-46.1-21.4-89.7-50.8-120.1-92.2c-26-35.5-45.8-76.3-62.5-116.5
	c-43.1-103.6-69.2-213.9-96.9-323C91.7,296.7,58.6,194.8,24.5,92.7C5.4,35.5-14-22.8-41-75.8C-49.3-92.2-59.3-108-71.7-122
	c-15.2-17.1-32.4-36.7-52.7-45.8c-8.2-3.7-21.1-9.2-29.4-4.3C-173-160.7-120.3-84.9-112.1-69.6"/>
<path class="st3" d="M-37.5-105.1C-4.9-48.6,18.6,12,40.1,73.4c15.7,44.9,30.5,90.4,45.4,135.6c24.8,75.6,42.7,153.9,62.9,230.9
	c22.7,86.9,49.6,173.5,84.4,256.1c19.5,46.2,41.5,92.7,71.1,133.8c34,47.2,82.8,79.1,135.7,101.7c111.8,47.9,235.2,69.8,354.6,89.7
	c62.7,10.4,125.6,19.5,188.4,28.4c48.5,6.9,100.7,9.5,146.4,28.5c90,37.5,145.9,125.5,193.4,205.7c15,25.3,31.3,49.8,48.6,73.6
	c32.7,45.1,67.3,102.8,118.9,128c4.9,2.4,10.2,4.8,15.2,5.9c10.6,2.3,18.6-1.5,22.7-7.7c0.4-0.5,0.7-1,1-1.5
	c4-7.8,2.4-20.2,0.8-28.2c-1.6-7.1-4-14-7.2-20.6c-61.6-131.4-138.8-274.6-259-357.2c-53.8-36.9-113.8-43.5-178.5-51.9
	c-81.9-10.6-164.2-19.3-245.8-30.9c-104.7-14.8-213.4-31.5-311.5-73.3c-95.6-40.8-153-115.2-190.6-208.8
	c-40.4-100.6-61.4-208.2-89-313.3c-26.5-100.8-64.5-196.8-102.3-293.6C124.5,50.6,102.7-4.1,74-53.2C64.4-69.3,53.2-84.3,40.4-98
	c-23.8-25.7-49.9-50.9-79.8-69.2c-12.7-7.8-26.7-16.5-41.1-20.3c-16.7-4.5,3.5,23.6,6,27.3C-62.2-141.8-49.1-124-37.5-105.1"/>
<path class="st4" d="M72.6-93.6c39.8,53.1,71.6,110.9,98.2,171.2c19.1,43.3,35.1,88.8,52.1,132.6c28.6,73.5,42.7,153.5,59.3,231.3
	c18.7,87.6,39,176.5,71.1,259.8c17.8,46.2,38.2,91.3,71.9,128.9c36.6,41,82.9,68.9,134.1,88c105.3,39.3,220.2,52.1,331.2,64.2
	c58.2,6.4,116.5,11.9,174.7,18.4c49,5.5,102.5,7.5,149.2,24.5c92.4,33.5,165.5,115.6,227.6,188.1c21,24.5,42.5,48.6,64,72.5
	c51.1,56.9,98.6,133.6,175.3,158.2c7.8,2.5,16.3,4.7,24.6,4.8c14.4,0.1,32-6,39.9-19.2c0.5-0.9,1-1.8,1.5-2.7
	c6.3-14.2,0.2-29.5-4.8-43.1c-3-8.3-8.4-16.8-13.6-23.9c-57-77.8-127.7-148.9-200.9-212.8c-77.2-67.5-160.4-131.1-250.2-178.9
	c-30.6-16.3-63-31.7-97.1-40.4c-31.7-8.1-65.9-9.4-98.4-11.6c-74.4-4.9-149.3-5.1-223.7-7.8c-93.7-3.3-192.2-7.4-281.5-39.2
	c-44.8-16-86.1-41.8-117.7-77.6c-29.2-33.1-42.7-77-50.7-119.5c-18.6-99.2-10.7-202-16.3-302.8c-2.8-50.3-8.3-100.8-21.7-149.4
	c-12.3-44.7-33.1-86.5-54.1-127.5c-26.5-51.8-56.1-103.4-92.2-148.1c-12.2-14.9-25.9-28.5-41-40.4C149.3-123.4,112.3-149.7,71-165
	c-14.9-5.5-31.5-10.1-46.8-11.8c-22.2-2.5-2.2,23.1,2.8,29.2C41.7-129.2,57.9-112.1,72.6-93.6"/>
<path class="st5" d="M202.3-123c52.8,48.8,99.8,102.7,137,163.5c24.4,39.9,48.1,83.8,60.5,128.5c21.1,75.5,15.7,158.8,13.7,238
	c-2.2,87.4-5.3,176.2,9.1,261.2c7.8,45.9,24.9,88.2,60.2,120.8c33.1,30.7,73.2,51.2,116.4,63.5c90.9,25.9,188.8,23.7,282.5,22.6
	c50.3-0.6,100.6-1.7,151-0.8c45.3,0.8,93.6,0.6,137.8,11.5c123.1,30.4,237.6,110,340.3,180.7c36.2,24.9,72.8,49.7,108.8,75.1
	c57.9,40.8,112.8,86.1,170.3,127.7c49.7,35.9,103.7,68.2,164.2,80.6c13.1,2.7,27.2,5,40,3.6c18-2,44.7-8.5,47.7-31.2
	c0.2-1.3,0.2-2.6,0.2-3.9c-1-22.4-22.5-42.7-36.8-57.5c-9.1-9.3-18.7-18-28.8-26.3c-103.3-85.7-220.9-158.1-338.2-225.4
	c-119.9-68.7-243.8-133.6-371.9-183.6c-71.3-27.8-139.7-46.8-217-46.1c-65,0.6-129.7,8.6-194.2,14.7c-79.9,7.5-165.1,15.8-243.4-7.4
	c-41.6-12.3-80.4-36.1-109.5-68.4c-29.4-32.5-37.8-77.3-37.5-118.9c0.8-98.7,35.6-198,53.6-296.7c8.5-46.8,14.8-94.7,11.3-142.3
	c-3.4-46.3-20.1-85.9-40.8-126.4c-28.2-55.2-61.5-108.9-101.7-155.3c-13.6-15.6-28.8-29.7-45.4-41.9
	c-44.1-32.7-94.9-61.6-151.4-66.3c-17.8-1.5-38.7-0.7-55,7.2C89.3-199.8,185.8-137.6,202.3-123"/>
<path class="st6" d="M334-220.5c61.2,52.8,118.3,110.3,161.5,177.9c26,40.8,52.4,87.5,59.7,134.8c12.5,81.2-13.8,169.1-34,249.9
	c-21.8,87.1-54.4,182.3-45.1,270.2c4.6,43.5,21.6,78.6,57.4,106.9c31.6,24.9,68.9,41.3,108.6,47.8c76.5,12.8,156.1-2.3,231.7-14.7
	c79.3-13,161.4-28.8,242-19.8c57.2,6.4,113.3,28.9,166.5,49.6c80.2,31.2,158.5,67.3,235.7,104.9c49.3,24,98.7,48.4,147.3,73.7
	c96.7,50.2,191.1,105.4,286.8,157.9c70.7,38.8,145.7,80.9,225,97.6c11,2.3,23.2,4,34.2,1.8c23.3-4.7,13.9-34.8,7.2-47.2
	c-1-1.8-2.1-3.5-3.3-5.2c-20.3-28.9-51.6-51-80.3-70.4c-13.4-9.1-27.5-17.8-41.5-26.4c-132.4-81-271.8-152.6-412.3-219.7
	c-129.8-62-262.2-122.2-398.2-168.5c-67.4-22.9-130.6-40.6-202.3-35.2c-58.6,4.4-116.3,17.6-173.8,28.9
	c-71.9,14.2-148.9,29.6-221.9,13.2c-39.3-8.8-77.3-29.6-105.6-58.3c-31.5-31.9-39.8-75.3-37.9-117.3c4.4-98.6,48.5-197.6,78.7-294.3
	c15-47.9,29.1-97,33.3-147.2c3.7-43.8-4-81.4-23-120.2c-26.3-53.7-60.5-103.3-101.4-147c-14.4-15.2-29.7-29.4-45.9-42.6
	c-51.7-42.5-112.9-79.9-178.8-96.2c-16.6-4.1-38.9-7.8-54.9,0C199.5-311.2,317.6-234.3,334-220.5"/>
<path class="st1" d="M1119.4-439.6c58.7,39.5,75.9,95.5,87.2,162c13.7,81.3,34.2,160.9,70,234.8c23.6,48.6,54.7,109.5,100.9,141.3
	c53.3,36.8,132.4,18.7,188.7,2.5c83.7-24.1,170.5-62.1,246.1-108c29.6-18,46.5-27.7,75.5-6.7c4.1,2.9,9.3,7.2,15,4.2
	c4.3-2.3,7.9-8.3,11.3-13.9c7.4-12.4,15.8-24.2,25-35.3c8.4-10,19-22.6,19-36.5c0-9.1-4.5-15.6-8.2-20.4c-6.6-8.4-21-33.3-34.8-27.7
	c-11.6,4.8-22.3,14.8-33.4,22.1c-29,19.2-60,36.1-90.7,51.6c-103.3,51.9-252.7,114.6-357.3,31.1c-73.2-58.5-122-135.7-139.1-226.7
	c-11.5-60.9-18.7-121.7-51.2-175.7c-12.2-20.2-28.5-36.7-48.5-47.8c-20.5-11.4-51.2-16.2-73.2-4.5
	C1102.5-483,1102.6-452.2,1119.4-439.6z"/>
<path class="st7" d="M1007.7-420c-14.7,0.3-24.4,15.3-19.4,28.3c1,2.4,2.4,4.5,4.3,6.2c32.5,29.5,59.4,67.3,73.4,108.6
	c6.2,18.2,11.1,37,15.8,55.8c8.8,35.4,17.9,71.1,26.1,106.7c9.1,39.5,17.7,79.5,27.5,118.9c4.3,17.2,8.9,34.6,13.7,51.6
	c15.1,52.9,33.6,105.5,58.5,154.2c18.4,36,40.3,67,82.7,75.5c42.8,8.6,90-1.4,131-11.7c113.4-28.5,224.4-81.2,333-127.2
	c19.3-8.2,41.6-20.1,61.6-18.1c16.7,1.6,32.4,10.2,48.3,18.3c3.4,1.7,7,3.4,10.6,3.8c2.6,0.4,5.3-0.4,7.2-2.2
	c3.3-3.1,5.1-9.9,6.4-16.6c2.2-10.8,4.3-21.6,6.3-32.5c0.7-3.8,1.4-7.5,2.1-11.2c2.8-13.8,5-29.3,0.6-43.1
	c-2.6-8.1-7.1-15.5-13.1-21.6c-11.8-12.7-29.6-34.6-50-30.2c-15.3,3.3-30,11.6-44.2,18.4c-32,15.3-64.5,29.7-96.7,44.4
	c-38.3,17.5-77.3,34.5-116.7,48.9c-60,21.9-132.5,46.8-197.8,35.3c-57.1-10.1-94.3-61.4-122.9-106.6
	c-37.7-59.5-59.7-126.9-75.2-196.2c-7.2-32.1-12.3-65.1-19.7-96.8c-6.4-27.6-14.8-55.1-27.7-79.8c-9.8-19-23.5-35.9-40.1-49.4
	C1070.9-406.8,1037.4-420.5,1007.7-420z"/>
<path class="st4" d="M886.1-372.7c-10.1-1-28.2-0.1-28.1,14.9c0.1,1.8,0.7,3.5,1.7,5c23.2,38.8,55.4,71,73.5,112.7
	c8.4,19.2,15.7,39.2,22.5,59.1c12.8,37.6,24.9,76.3,35.8,114.2c12.1,42.5,20.8,86.9,29.9,130.6c4.2,19.9,8.3,39.9,12.6,59.8
	c13.1,60.7,27.9,121.5,48.8,179.7c14.5,40.4,29.7,90,66.5,116.5c38.1,27.4,89.4,21.3,132.5,14.6c147-23.1,284.6-92.3,429.9-126.6
	c28.8-6.8,61.4-16.6,90.2-9.3c23.6,6,46.2,19.4,68.9,28.9c4.4,1.8,9.1,3.4,13.5,3.6c3.1,0.2,5.9-0.6,8-3.1
	c2.8-3.4,3.7-10.3,3.7-17.4c0-11.8-0.7-23.7-1.8-35.6c-0.4-4.1-0.9-8.3-1.3-12.2c-1.7-15-4.5-30.8-11.3-44.3
	c-4.4-8.4-10.2-15.9-17.2-22.3c-19.1-17.4-39.9-36.6-67.7-35.3c-19.6,1-38.7,8-57.2,14c-36.5,11.7-72.4,24.3-108,38.4
	c-42.1,16.7-84.4,34.2-126.9,49.8c-67.4,24.7-144.3,52.6-217.6,49.9c-73.9-2.7-103.8-62.7-131.9-121.5c-38.7-81-61.5-169.1-81-257.3
	c-8.2-37-17-74.1-26.4-110.7c-7.4-29-15.8-58.3-27.9-85c-8.9-19.6-21-37.7-35.7-53.4C959.2-342,921.4-369.4,886.1-372.7z"/>
<path class="st3" d="M757.7-347.1c-12.9-5.2-31-12.3-44.5-7.2c-1,0.3-1.8,1.2-2,2.2c-2,15.6,20.6,35.3,29.7,46.3
	c17.4,21,35.4,41.8,50,64.6c12.8,19.9,24.8,40.7,35.7,61.7c21.1,40.8,38.9,83.1,53.5,126.6c14.8,44.3,26.1,87.2,31.5,133.8
	c2.4,20.5,4.1,41.3,5.6,62c4.7,62.1,7.6,125.2,19.3,185.9c8.8,45.6,21.4,95.9,46.4,136.1c26.7,42.8,70.6,65.3,118.1,70.5
	c171.9,18.9,347.1-81.6,519.2-99.4c57.7-6,114.2,7.5,166.9,30.4c51.3,22.3,100.3,56.2,153.2,75.5c6.2,2.3,11.6,3.5,15.2,2.7
	c2.5-0.6,4-2.6,3.4-7.1c-0.6-5.4-4.1-14.3-8.2-23.6c-6.6-15.2-13.7-30.3-20.9-45.2c-2.5-5.1-4.9-10-7.3-14.7
	c-8.1-16.3-16.3-33.4-27.1-47.6c-6.7-9-14.4-17.2-22.8-24.7c-26.8-23.1-55.9-45.9-92.5-49.4c-61.3-5.7-132.8,15-190.2,31.5
	c-45.3,13.1-90.6,28.3-135.8,42.1c-75.2,22.9-155,46.9-234.5,48.1c-36.1,0.5-70.5-7.4-96.8-33.6c-25.2-25.2-38.7-61.1-52.1-93.1
	c-40.1-95.7-65.1-197.3-90.5-298.2c-10.8-43-24.3-85.4-36.9-127.9c-9.5-32.1-19.3-64.6-32.3-94.9c-9.1-21.4-20.8-41.6-34.8-60.1
	C845.7-293.8,803.8-328.3,757.7-347.1z"/>
<path class="st8" d="M603.7-361.5c-17.5-9.3-37.4-18.8-57.7-21.2c-1.9-0.2-3.8-0.3-5.7-0.2c-19.1,0.8,19.4,35.3,22.9,38.6
	c22.1,20.8,45.5,40.5,66.2,62.4c18.1,19.3,35.8,39.5,52,60.3c31,39.5,58.3,82.6,79.4,128S789-5,786,44.8
	c-1.3,21.5-4.1,43.4-7.3,64.8c-10,65.4-26.2,131.1-33.6,196.6c-5.4,47.2-5.4,94.8,3.5,142.2c10,53,35.8,94.1,81.3,119.4
	c89.8,49.9,206.7,26.8,305.8,4.7c91.2-20.3,190.3-58,284.8-51.4c115.3,8,231.4,64.8,333.1,114.8c60.1,29.5,119.4,61.4,178.7,92.9
	c46.7,24.8,93.9,52.5,142.6,70.8c8.6,3.3,18.4,7.2,27.8,7.4c4.4,0.1,7.2-1.9,6.2-7.1c-1.8-8.7-7.3-17.2-11.8-24.9
	c-10.3-17.7-22.4-34.9-34.8-51.3c-4.5-5.9-8.9-11.5-13.2-17c-15-18.7-31-37.1-48.6-53.1c-13.5-12.2-27.7-23.7-42.5-34.3
	c-68.7-49.4-143.2-92.1-221.9-121.6c-42.7-16-87.9-29.2-134-32.7c-41.5-3.2-84,3.7-124.2,12c-45.4,9.4-90.8,22.1-135.9,33.8
	c-75.9,19.7-153.9,39-232.9,38.6c-37.6-0.2-75.8-7.6-107.1-29.4c-33.7-23.5-52.3-57.1-65.9-93.9C896.9,321.3,889,208.2,878,95.9
	C872.7,41.4,863.1-9.4,845-60.9c-12.7-36.1-27.4-72.1-45.2-105.7c-12.4-23.2-26.7-45.3-42.7-66.1
	C716.1-286.1,662.3-330.5,603.7-361.5z"/>
<path class="st3" d="M674.2,36.8c-7.6,91.1-47.3,181.1-76.6,268.7c-28.7,85.9-64.5,198.6-14.2,277C626.6,650,725.7,667,804.6,662
	c81.3-5.2,160.5-27.6,240-44.2c37-7.7,74.4-14.6,112.1-17.1c42.7-2.8,81.8,3.9,122.8,15.9c151.3,44.1,296.3,114.8,436.4,185.1
	c108,54.2,214.6,111.8,321.8,168.2c41,21.6,82,43.1,123.8,63c25,11.9,51.7,25.8,79.2,30.6c7,1.2,12.6,0.5,13.1-3.9
	c2.5-21.8-25-51.5-39.3-68.1c-24.2-28-54.3-51.4-84.6-73.1c-182.8-131.3-392.8-237.4-604.8-315.8c-66.5-24.6-141.6-54.4-213.7-53.2
	c-60.1,1-119.5,15.5-177.8,28.9C1007,607.4,780,660.9,728.2,501.6c-27.6-84.8-15-182.9-1.7-273.4c12.5-85.1,37.7-179.5,21.1-264.3
	c-13.2-67.5-58-133.9-102.4-185.9C593.8-282,527.3-329.6,455.8-363.1c-20-9.3-42.9-19.1-65.4-19.9c-38.3-1.3-7,30,5.9,41
	c25.2,21.5,54,38.9,79.5,59.8c63.1,51.6,121.6,110.3,162.4,180.6C664.1-56.8,678.6-15.1,674.2,36.8z"/>
</svg>
