<?xml version="1.0" encoding="utf-8"?>
<!-- Generator: Adobe Illustrator 24.3.0, SVG Export Plug-In . SVG Version: 6.00 Build 0)  -->
<svg version="1.1" id="Layer_1" xmlns="http://www.w3.org/2000/svg" xmlns:xlink="http://www.w3.org/1999/xlink" x="0px" y="0px"
	 viewBox="0 0 1600 1200" style="enable-background:new 0 0 1600 1200;" xml:space="preserve">
<style type="text/css">
	.st0{opacity:0.1;fill:#0AB7E0;}
	.st1{opacity:0.1;fill:#E16197;}
	.st2{opacity:0.1;fill:#2E39A9;}
	.st3{opacity:0.1;fill:#F4F3EF;enable-background:new    ;}
	.st4{opacity:0.1;fill:#9844AF;}
	.st5{opacity:0.1;fill:#E2164B;}
	.st6{opacity:0.1;fill:#FF612E;}
	.st7{opacity:0.1;fill:#FFCD00;}
	.st8{opacity:0.1;fill:#B2CD0D;}
</style>
<desc>Created with Sketch.</desc>
<path class="st0" d="M1196.2,790.8C743.7,816.8,939.9,1387.1,1330,1583c-345.1,0-1142-325.1-1142-722.6S226.2,71,571.3,71
	C916.4,71,1196.2,393.2,1196.2,790.8z"/>
<path class="st1" d="M1953-133.7C1953,327,1696,496,1419.2,496S918,122.5,918-338.3S1175-968,1451.8-968
	C1728.6-968,1953-594.5,1953-133.7z"/>
<path class="st2" d="M944.9-1072c632.7,63.3,870.4,882.1,825.8,1330c-44.6,447.9-299-59.5-931.6-122.8s-528-214.9-483.5-662.7
	C-94-432.3,312.3-1135.3,944.9-1072z"/>
<path class="st3" d="M1249.2-578.1c345.3,34.4,444.7,705.8,420.3,949.5s-163.2-32.4-508.4-66.8C815.8,270.2,630.4,156.2,654.8-87.5
	C679.1-331.2,903.9-612.5,1249.2-578.1z"/>
<path class="st0" d="M1215-398.3c226.6,22.6,51.9,565.3,30.5,780.2c-21.4,214.9-106.7-24.8-333.3-47.5
	C685.6,311.8,367.6,221.6,389,6.7C410.5-208.3,988.4-421,1215-398.3z"/>
<path class="st4" d="M1703.6,340.1c235.4,424.4-10.2,1054.3-289,1209.9c-278.8,155.6-673.3-307-871-660.9
	C345.9,535.2,716-208.7,1156.8-99.1C1386.9-41.9,1588.6,132.8,1703.6,340.1z"/>
<path class="st3" d="M1681.9,951.8c12.8,292.4-90.8,499.8-260.3,594.4c-169.5,94.6-416.5-168.2-529.4-401.9
	C651.4,645.5,975.3-19,1328,249.9C1544.5,414.9,1670,679.4,1681.9,951.8z"/>
<path class="st5" d="M1910.2,809.1c12.8,292.5-124.6,579.5-260.1,594.6c-187,20.8-239.4-207.6-244.9-395.9
	c-5.6-193.3,146.2-691.8,244.9-259.2C1723,1068.2,1898.3,536.7,1910.2,809.1z"/>
<path class="st6" d="M1303.2,855C1126.4,1195.7,381,1623-318,1451S-0.7,1188.5-0.7,791.2S223.7,72,568.3,72
	c148.2,0,284.3,59.5,391.3,159C1180.9,372.4,1412.3,644.7,1303.2,855z"/>
<path class="st7" d="M203.6,940.8c-398.5,100.9-980.7,64-872.5-239.4C-489.8,199.6-56.7-135.9,479-68.4
	c210.8,26.6,412.5,191.7,512.9,345.2C1223,630,811.6,787,203.6,940.8z"/>
<path class="st8" d="M77.5-377.8c396.9,74.4,939.5,397.2,705.1,871.3C652.6,756.4,71.1,978-130.4,888
	C-464.4,738.8-562.8-497.8,77.5-377.8z"/>
<path class="st0" d="M366.1,611.5C130.8,947.7-619.6,1159.2-943,932.7c-323.5-226.5-97.6-805.2,137.8-1141.4
	c235.4-336.1,547.1-525.2,870.6-298.7C388.8-280.9,601.5,275.4,366.1,611.5z"/>
<path class="st2" d="M41.8,667c-299.8,279.6-1015.7,396-1235.7,160s-110-804.3,189.8-1083.9C-704.4-536.5-129.7-606.6,90.3-370.7
	S341.6,387.4,41.8,667z"/>
</svg>
