<?xml version="1.0" encoding="utf-8"?>
<!-- Generator: Adobe Illustrator 24.3.0, SVG Export Plug-In . SVG Version: 6.00 Build 0)  -->
<svg version="1.1" id="Layer_1" xmlns="http://www.w3.org/2000/svg" xmlns:xlink="http://www.w3.org/1999/xlink" x="0px" y="0px"
	 viewBox="0 0 1600 1200" style="enable-background:new 0 0 1600 1200;" xml:space="preserve">
<style type="text/css">
	.st0{opacity:0.1;fill:none;stroke:#CFCFAF;stroke-width:30;stroke-linejoin:round;}
	.st1{opacity:0.1;fill:none;stroke:#F6AE9F;stroke-width:30;stroke-linejoin:round;}
	.st2{opacity:0.1;fill:none;stroke:#05203D;stroke-width:30;stroke-linejoin:round;}
	.st3{opacity:0.1;fill:none;stroke:#89C7AA;stroke-width:30;stroke-linejoin:round;}
	.st4{opacity:0.1;fill:none;stroke:#05203D;stroke-width:30;}
</style>
<desc>Created with Sketch.</desc>
<ellipse class="st0" cx="1629" cy="105.5" rx="38" ry="37.5"/>
<path class="st1" d="M1391,967c0-55.2,49.2-100,110-100c21.1,0,40.8,5.4,57.5,14.8 M1611,1035v-68c0-21.8-7.7-41.9-20.7-58.3"/>
<path class="st1" d="M1654,275h36.5c24.6,0,44.5-19,44.5-42.5s-19.9-42.5-44.5-42.5h-73.1c-24.6,0-44.5,19-44.5,42.5"/>
<path class="st0" d="M1041,215c-55.2,0-100-49.2-100-110c0-21.1,5.4-40.8,14.8-57.5 M1109-5h-68c-21.8,0-41.9,7.7-58.3,20.7"/>
<path class="st2" d="M1317.5,1115h-3.1c-22.3,0-40.4,18.1-40.4,40.5s18.1,40.5,40.4,40.5h93.3c22.3,0,40.4-18.1,40.4-40.5
	s-18.1-40.5-40.4-40.5h-3.1"/>
<path class="st3" d="M964,1200c-26,0-47-21-47-47s21-47,47-47"/>
<path class="st1" d="M1364.6,223c21.8,0,39.4-17.5,39.4-39s-17.7-39-39.4-39H1320"/>
<path class="st2" d="M113,5h-222.9C-153.6,5-189,40.4-189,84"/>
<path class="st3" d="M1525,1200v-152.1c0-29.8-24.2-53.9-54-53.9s-54,24.1-54,53.9v23.5"/>
<path class="st1" d="M-12,401c51.9,0,94-41.4,94-92.5S39.9,216-12,216s-94,41.4-94,92.5"/>
<path class="st0" d="M63.4,100.5c0,24-19.3,43.5-43.2,43.5S-23,124.5-23,100.5S-3.7,57,20.2,57H105"/>
<path class="st1" d="M644,93.5V35.2C644,18.5,657.4,5,674,5s30,13.5,30,30.2v116.7c0,16.7-13.4,30.2-30,30.2s-30-13.5-30-30.2v-14.1
	"/>
<path class="st3" d="M588,14v151.8c0,45.4,36.9,82.2,82.5,82.2s82.5-36.8,82.5-82.2V130"/>
<path class="st3" d="M1176,57h180c68.5,0,124,55.7,124,124.5S1424.5,306,1356,306h-54.1"/>
<path class="st2" d="M1659,311v82c0,35.3-28.9,64-64.6,64H1544"/>
<path class="st3" d="M416,361v55c0,39.8,32.2,72,72,72"/>
<path class="st1" d="M305,750v-86.1c0-49.6,38.8-91.1,91-101.9"/>
<path class="st4" d="M1298.5,440.5h105.3c60.6,0,111.4,47.4,124.7,111"/>
<path class="st3" d="M1514,321.3c0-26.1,21.3-47.3,47.5-47.3s47.5,21.2,47.5,47.3v34.4c0,26.1-21.3,47.3-47.5,47.3
	s-47.5-21.2-47.5-47.3V321.3z"/>
<path class="st1" d="M529,368l0-200.8c0-39.3-31.8-71.2-71-71.2"/>
<circle class="st3" cx="1201" cy="216" r="32"/>
<path class="st1" d="M1201,306c50.8,0,92-40.5,92-90.5s-41.2-90.5-92-90.5s-92,40.5-92,90.5"/>
<path class="st2" d="M1045.5,67c-20.7,0-37.5,16.8-37.5,37.5s16.8,37.5,37.5,37.5s37.5-16.8,37.5-37.5V67"/>
<path class="st0" d="M897.5,812.8c-24,0-43.5,19.3-43.5,43.1s19.5,43.1,43.5,43.1s43.5-19.3,43.5-43.1V724"/>
<path class="st1" d="M727.8,1106.5c0,21.8,17.5,39.5,39.1,39.5s39.1-17.7,39.1-39.5s-17.5-39.5-39.1-39.5H636"/>
<path class="st0" d="M563.8,1122h99.4c20.3,0,36.8,16.6,36.8,37s-16.5,37-36.8,37h-99.4c-20.3,0-36.8-16.6-36.8-37
	S543.5,1122,563.8,1122z"/>
<path class="st1" d="M379,262c0,49.7-40.3,90-90,90s-90-40.3-90-90"/>
<path class="st2" d="M457,307V197c0-21.5-17.5-39-39-39s-39,17.5-39,39v17"/>
<ellipse class="st2" cx="226" cy="424.5" rx="27" ry="26.5"/>
<path class="st0" d="M249,245.2V134.8c0-21.4,17.5-38.8,39-38.8c21.5,0,39,17.4,39,38.8v110.5c0,21.4-17.5,38.8-39,38.8
	C266.5,284,249,266.6,249,245.2z"/>
<path class="st1" d="M1142,307h-88.1C998.2,307,953,352.2,953,408"/>
<path class="st2" d="M-12.5,348.5c20.7,0,37.5-16.7,37.5-37.3S8.2,274-12.5,274S-50,290.7-50,311.3V554"/>
<path class="st1" d="M1229.5,501c-21.8,0-39.5,17.5-39.5,39s17.7,39,39.5,39s39.5-17.5,39.5-39v-39"/>
<path class="st3" d="M1471,685.8c0,55.9,45.9,101.2,102.5,101.2S1676,741.7,1676,685.8V577"/>
<path class="st2" d="M1417.6,733h-5.1c-29,0-52.5-23.5-52.5-52.5s23.5-52.5,52.5-52.5h159.9c29,0,52.5,23.5,52.5,52.5
	s-23.5,52.5-52.5,52.5h-1.6"/>
<path class="st3" d="M1320,501h64.5c43.3,0,78.5,34.9,78.5,78"/>
<ellipse class="st2" cx="651" cy="857.5" rx="38" ry="37.5"/>
<path class="st0" d="M558.4,835.5c-13.9,52.1,16.2,105.5,67.4,119.2c51.1,13.7,103.9-17.4,117.8-69.5
	c13.9-52.1-16.2-105.5-67.4-119.2"/>
<path class="st4" d="M627.7,765.6H442.4c-35.7,0-64.7-29.5-64.7-65.9c0-36.4,28.9-65.9,64.6-65.8c35.7,0,64.7,29.5,64.7,65.9h-60.3
	l0,0"/>
<path class="st3" d="M623.5,552c0,9,0,121.7,0,177"/>
<path class="st0" d="M283,1107c-16,0-29-12.8-29-28.5s13-28.5,29-28.5h31"/>
<ellipse class="st1" cx="109.5" cy="1109" rx="41.5" ry="41"/>
<path class="st2" d="M197,1108c0-50.8-40.5-92-90.5-92S16,1057.2,16,1108s40.5,92,90.5,92"/>
<path class="st2" d="M351,1050h37.9c25.5,0,46.1-19.7,46.1-44s-20.6-44-46.1-44h-75.8c-25.5,0-46.1,19.7-46.1,44"/>
<path class="st2" d="M198,987c0-46.4,37.4-84,83.6-84H429"/>
<path class="st1" d="M150.5,903c0,4.2,0,57.8,0,84"/>
<path class="st1" d="M568.5,652c0,3.7,0,50.2,0,73"/>
<path class="st1" d="M684.1,445.5c0,22.9-18.4,41.5-41,41.5s-41-18.6-41-41.5s18.4-41.5,41-41.5h132"/>
<path class="st0" d="M828,534.5v-58.3c0-16.7,13.4-30.2,30-30.2s30,13.5,30,30.2v116.7c0,16.7-13.4,30.2-30,30.2s-30-13.5-30-30.2
	v-14.1"/>
<path class="st3" d="M776,446v151.8c0,45.4,36.9,82.2,82.5,82.2s82.5-36.8,82.5-82.2V562"/>
<path class="st2" d="M789,311h-43.3c-31.3,0-56.7,25.5-56.7,57"/>
<path class="st1" d="M827.5,268c0,6.1,0,98.6,0,136"/>
<path class="st3" d="M1076,490.1v13.2c0,18.6-15.2,33.7-33.9,33.7c-18.7,0-33.9-15.1-33.9-33.7v-10.9c0-18.5-15.1-33.4-33.6-33.4
	c-18.6,0-33.6,15-33.6,33.4v13.4"/>
<path class="st2" d="M4.5,764.1c-20.7,0-37.5,16.8-37.5,37.5S-16.2,839,4.5,839S42,822.2,42,801.5V742"/>
<path class="st0" d="M47,687v-59.1c0-34,26.9-62.5,63-69.9"/>
<path class="st3" d="M4.5,600c0-7.9,0-93.4,0-142"/>
<path class="st3" d="M101,667.9c0-26.4,21.5-47.9,48-47.9s48,21.4,48,47.9v112.2c0,26.4-21.5,47.9-48,47.9s-48-21.4-48-47.9V667.9z"
	/>
<path class="st1" d="M1008,885.4c0-21.8,17.5-39.4,39-39.4s39,17.7,39,39.4V930"/>
<ellipse class="st1" cx="1168.5" cy="823" rx="41.5" ry="41"/>
<path class="st0" d="M1087.7,1004.5c0,20.7-16.7,37.5-37.4,37.5s-37.4-16.8-37.4-37.5s16.7-37.5,37.4-37.5H1190"/>
<path class="st2" d="M1041,728h136.2c51.8,0,93.8,42.1,93.8,94s-42,94-93.8,94h-41"/>
<path class="st0" d="M1239,967h43.1c43.6,0,78.9,35.5,78.9,79.2v80.8"/>
<ellipse class="st2" cx="1281" cy="1046.5" rx="27" ry="26.5"/>
<path class="st3" d="M1134.5,1136c0,10,0,20,0.1,30"/>
<path class="st0" d="M1134.5,1077c0,10,0,20,0.1,30"/>
<path class="st3" d="M947.5,1026c0,10,0,20,0.1,30"/>
<path class="st1" d="M947.5,967c0,10,0,20,0.1,30"/>
<path class="st0" d="M887.5,967c0,10,0,20,0.1,30"/>
<path class="st2" d="M471.5,888c0,10,0,20,0.1,30"/>
<path class="st1" d="M28.5,909c0,10,0,20,0.1,30"/>
<path class="st1" d="M163.5,505c0,10,0,20,0.1,30"/>
<path class="st0" d="M114.5,431c0,10,0,20,0.1,30"/>
<path class="st3" d="M528.5,472c0,10,0,20,0.1,30"/>
<path class="st3" d="M826.5,155c0,10,0,20,0.1,30"/>
<path class="st2" d="M826.5,98c0,10,0,20,0.1,30"/>
<path class="st2" d="M1155.5,632c0,10,0,20,0.1,30"/>
<path class="st2" d="M1226.5,632c0,10,0,20,0.1,30"/>
<path class="st2" d="M1297.5,632c0,10,0,20,0.1,30"/>
</svg>
