<?xml version="1.0" encoding="utf-8"?>
<!-- Generator: Adobe Illustrator 24.3.0, SVG Export Plug-In . SVG Version: 6.00 Build 0)  -->
<svg version="1.1" id="Layer_1" xmlns="http://www.w3.org/2000/svg" xmlns:xlink="http://www.w3.org/1999/xlink" x="0px" y="0px"
	 viewBox="0 0 1600 1200" style="enable-background:new 0 0 1600 1200;" xml:space="preserve">
<style type="text/css">
	.st0{filter:url(#Adobe_OpacityMaskFilter);}
	.st1{fill-rule:evenodd;clip-rule:evenodd;fill:#FFFFFF;}
	.st2{opacity:0.1;mask:url(#mask-2_1_);fill-rule:evenodd;clip-rule:evenodd;fill:#F2F2F2;}
	.st3{filter:url(#Adobe_OpacityMaskFilter_1_);}
	.st4{opacity:0.1;mask:url(#mask-2_2_);fill-rule:evenodd;clip-rule:evenodd;fill:#75CBB3;}
	.st5{filter:url(#Adobe_OpacityMaskFilter_2_);}
	.st6{opacity:0.1;mask:url(#mask-2_3_);fill-rule:evenodd;clip-rule:evenodd;fill:#F2F2F2;}
	.st7{filter:url(#Adobe_OpacityMaskFilter_3_);}
	.st8{opacity:0.1;mask:url(#mask-2_4_);fill-rule:evenodd;clip-rule:evenodd;fill:#DC2249;}
	.st9{filter:url(#Adobe_OpacityMaskFilter_4_);}
	.st10{opacity:0.1;mask:url(#mask-2_5_);fill-rule:evenodd;clip-rule:evenodd;fill:#7A4865;}
	.st11{opacity:0.1;}
	.st12{fill-rule:evenodd;clip-rule:evenodd;fill:#F6CB51;}
	.st13{filter:url(#Adobe_OpacityMaskFilter_5_);}
	.st14{opacity:0.1;mask:url(#mask-2_7_);fill-rule:evenodd;clip-rule:evenodd;fill:#3D2C42;}
	.st15{fill-rule:evenodd;clip-rule:evenodd;fill:#DC2249;}
	.st16{filter:url(#Adobe_OpacityMaskFilter_6_);}
	.st17{opacity:0.1;mask:url(#mask-2_9_);fill-rule:evenodd;clip-rule:evenodd;fill:#75CBB3;}
	.st18{fill-rule:evenodd;clip-rule:evenodd;fill:#75CBB3;}
	.st19{filter:url(#Adobe_OpacityMaskFilter_7_);}
	.st20{mask:url(#mask-8_1_);fill-rule:evenodd;clip-rule:evenodd;fill:#F2F2F2;}
	.st21{filter:url(#Adobe_OpacityMaskFilter_8_);}
	.st22{mask:url(#mask-8_2_);fill-rule:evenodd;clip-rule:evenodd;fill:#7A4865;}
	.st23{filter:url(#Adobe_OpacityMaskFilter_9_);}
	.st24{opacity:0.1;mask:url(#mask-2_11_);fill-rule:evenodd;clip-rule:evenodd;fill:#DC2249;}
	.st25{fill-rule:evenodd;clip-rule:evenodd;fill:#F2F2F2;}
	.st26{filter:url(#Adobe_OpacityMaskFilter_10_);}
	.st27{opacity:0.1;mask:url(#mask-2_13_);fill-rule:evenodd;clip-rule:evenodd;fill:#7A4865;}
	.st28{filter:url(#Adobe_OpacityMaskFilter_11_);}
	.st29{opacity:0.1;mask:url(#mask-2_14_);fill-rule:evenodd;clip-rule:evenodd;fill:#7A4865;}
	.st30{filter:url(#Adobe_OpacityMaskFilter_12_);}
	.st31{opacity:0.1;mask:url(#mask-2_15_);fill-rule:evenodd;clip-rule:evenodd;fill:#7A4865;}
	.st32{filter:url(#Adobe_OpacityMaskFilter_13_);}
	.st33{opacity:0.1;mask:url(#mask-2_16_);fill-rule:evenodd;clip-rule:evenodd;fill:#F2F2F2;}
</style>
<desc>Created with Sketch.</desc>
<defs>
	<filter id="Adobe_OpacityMaskFilter" filterUnits="userSpaceOnUse" x="63" y="-182" width="184" height="628">
		<feColorMatrix  type="matrix" values="1 0 0 0 0  0 1 0 0 0  0 0 1 0 0  0 0 0 1 0"/>
	</filter>
</defs>
<mask maskUnits="userSpaceOnUse" x="63" y="-182" width="184" height="628" id="mask-2_1_">
	<g class="st0">
		<rect id="path-1_2_" class="st1" width="1600" height="1200"/>
	</g>
</mask>
<path id="Shape" class="st2" d="M155-182c50.8,0,92,41.1,92,91.9v444.2c0,50.8-41.2,91.9-92,91.9H63V-90.1
	C63-140.9,104.2-182,155-182z"/>
<defs>
	<filter id="Adobe_OpacityMaskFilter_1_" filterUnits="userSpaceOnUse" x="614" y="94" width="184" height="1060">
		<feColorMatrix  type="matrix" values="1 0 0 0 0  0 1 0 0 0  0 0 1 0 0  0 0 0 1 0"/>
	</filter>
</defs>
<mask maskUnits="userSpaceOnUse" x="614" y="94" width="184" height="1060" id="mask-2_2_">
	<g class="st3">
		<rect id="path-1_3_" class="st1" width="1600" height="1200"/>
	</g>
</mask>
<path id="Shape_1_" class="st4" d="M706,94c50.8,0,92,41.1,92,91.9v814.9c0,50.8-41.2,91.9-92,91.9c-33.9,0-64.5,20.4-92,61.3V185.9
	C614,135.1,655.2,94,706,94z"/>
<defs>
	<filter id="Adobe_OpacityMaskFilter_2_" filterUnits="userSpaceOnUse" x="614" y="-310" width="184" height="1091">
		<feColorMatrix  type="matrix" values="1 0 0 0 0  0 1 0 0 0  0 0 1 0 0  0 0 0 1 0"/>
	</filter>
</defs>
<mask maskUnits="userSpaceOnUse" x="614" y="-310" width="184" height="1091" id="mask-2_3_">
	<g class="st5">
		<rect id="path-1_4_" class="st1" width="1600" height="1200"/>
	</g>
</mask>
<path id="Shape_2_" class="st6" d="M706-310c50.8,0,92,41.2,92,91.9v815.2c0,50.8-41.2,91.9-92,91.9c-33.9,0-64.5,30.6-92,91.9
	v-999.1C614-268.8,655.2-310,706-310z"/>
<defs>
	<filter id="Adobe_OpacityMaskFilter_3_" filterUnits="userSpaceOnUse" x="63" y="814" width="184" height="628">
		<feColorMatrix  type="matrix" values="1 0 0 0 0  0 1 0 0 0  0 0 1 0 0  0 0 0 1 0"/>
	</filter>
</defs>
<mask maskUnits="userSpaceOnUse" x="63" y="814" width="184" height="628" id="mask-2_4_">
	<g class="st7">
		<rect id="path-1_5_" class="st1" width="1600" height="1200"/>
	</g>
</mask>
<path id="Shape_3_" class="st8" d="M155,814c50.8,0,92,41.1,92,91.9v444.2c0,50.8-41.2,91.9-92,91.9H63V905.9
	C63,855.1,104.2,814,155,814z"/>
<defs>
	<filter id="Adobe_OpacityMaskFilter_4_" filterUnits="userSpaceOnUse" x="247" y="-56" width="367" height="1137">
		<feColorMatrix  type="matrix" values="1 0 0 0 0  0 1 0 0 0  0 0 1 0 0  0 0 0 1 0"/>
	</filter>
</defs>
<mask maskUnits="userSpaceOnUse" x="247" y="-56" width="367" height="1137" id="mask-2_5_">
	<g class="st9">
		<rect id="path-1_6_" class="st1" width="1600" height="1200"/>
	</g>
</mask>
<path id="Shape_4_" class="st10" d="M614,812.5H247V-50.7h149.9V-56H614V812.5z M614,815.5v27H247v-27H614z M614,847.5V872H247
	v-24.5H614z M614,880v21.5H247V880H614z M614,912.5v18H247v-18H614z M614,943.5V961H247v-17.5H614z M614,977v12c0,0.2,0,0.4,0,0.5
	H247c0-0.2,0-0.4,0-0.5v-12H614z M611.9,1008.5c-0.8,3.8-1.8,7.4-3.1,11H252.2c-1.3-3.6-2.3-7.2-3.1-11H611.9z M598.3,1040.5
	c-2,3-4.2,5.8-6.5,8.5H269.2c-2.3-2.7-4.5-5.5-6.5-8.5H598.3z M559.7,1073c-11.4,5.1-24.1,8-37.5,8H338.8c-13.3,0-26-2.9-37.5-8
	H559.7L559.7,1073z"/>
<g transform="translate(247.000000, -57.000000)" class="st11">
	<g id="Shape_5_">
		<path id="path-3_1_" class="st12" d="M0,0.7h367v341.5c0,50.7-41.1,91.9-91.8,91.9s-91.8,41.1-91.8,91.9V637
			c0,101.5-82.2,183.8-183.5,183.8V0.7z"/>
	</g>
</g>
<defs>
	<filter id="Adobe_OpacityMaskFilter_5_" filterUnits="userSpaceOnUse" x="982" y="366.6" width="184" height="790.4">
		<feColorMatrix  type="matrix" values="1 0 0 0 0  0 1 0 0 0  0 0 1 0 0  0 0 0 1 0"/>
	</filter>
</defs>
<mask maskUnits="userSpaceOnUse" x="982" y="366.6" width="184" height="790.4" id="mask-2_7_">
	<g class="st13">
		<rect id="path-1_8_" class="st1" width="1600" height="1200"/>
	</g>
</mask>
<path id="Shape_7_" class="st14" d="M1166,445v528.1c0,50.8-41.2,91.9-92,91.9c-33.9,0-64.5,30.6-92,91.9V366.6
	c6.6,44.4,44.8,78.4,91,78.4H1166z"/>
<g transform="translate(982.000000, 629.000000)" class="st11">
	<g id="Shape_8_">
		<path id="path-5_1_" class="st15" d="M91.9,0c50.8,0,91.9,41.1,91.9,91.8v443.8c0,50.7-41.1,91.8-91.9,91.8S0,586.4,0,535.6V91.8
			C0,41.1,41.1,0,91.9,0z"/>
	</g>
</g>
<defs>
	<filter id="Adobe_OpacityMaskFilter_6_" filterUnits="userSpaceOnUse" x="138" y="500" width="32" height="267">
		<feColorMatrix  type="matrix" values="1 0 0 0 0  0 1 0 0 0  0 0 1 0 0  0 0 0 1 0"/>
	</filter>
</defs>
<mask maskUnits="userSpaceOnUse" x="138" y="500" width="32" height="267" id="mask-2_9_">
	<g class="st16">
		<rect id="path-1_10_" class="st1" width="1600" height="1200"/>
	</g>
</mask>
<path id="Shape_10_" class="st17" d="M154,688.7c-8.8,0-16-7.2-16-16.1c0-8.9,7.2-16.1,16-16.1s16,7.2,16,16.1
	C170,681.5,162.8,688.7,154,688.7z M154,767c-8.8,0-16-7.2-16-16.1s7.2-16.1,16-16.1s16,7.2,16,16.1S162.8,767,154,767z M154,532.2
	c-8.8,0-16-7.2-16-16.1s7.2-16.1,16-16.1s16,7.2,16,16.1S162.8,532.2,154,532.2z M154,610.5c-8.8,0-16-7.2-16-16.1
	c0-8.9,7.2-16.1,16-16.1s16,7.2,16,16.1C170,603.3,162.8,610.5,154,610.5z"/>
<g transform="translate(624.000000, -44.000000)" class="st11">
	<g id="Shape_11_">
		<ellipse id="path-7_1_" class="st18" cx="174.7" cy="174.7" rx="174.7" ry="174.7"/>
	</g>
	<defs>
		<filter id="Adobe_OpacityMaskFilter_7_" filterUnits="userSpaceOnUse" x="174.7" y="-12.3" width="367.9" height="1135.9">
			<feColorMatrix  type="matrix" values="1 0 0 0 0  0 1 0 0 0  0 0 1 0 0  0 0 0 1 0"/>
		</filter>
	</defs>
	<mask maskUnits="userSpaceOnUse" x="174.7" y="-12.3" width="367.9" height="1135.9" id="mask-8_1_">
		<g class="st19">
			<ellipse id="path-7_2_" class="st1" cx="174.7" cy="174.7" rx="174.7" ry="174.7"/>
		</g>
	</mask>
	<path id="Shape_12_" class="st20" d="M542.6-12.3v1043.9c0,50.8-41.2,92-92,92H266.7c-50.8,0-92-41.2-92-92V-12.3H542.6z"/>
	<defs>
		<filter id="Adobe_OpacityMaskFilter_8_" filterUnits="userSpaceOnUse" x="174.7" y="173.2" width="174.7" height="297.3">
			<feColorMatrix  type="matrix" values="1 0 0 0 0  0 1 0 0 0  0 0 1 0 0  0 0 0 1 0"/>
		</filter>
	</defs>
	<mask maskUnits="userSpaceOnUse" x="174.7" y="173.2" width="174.7" height="297.3" id="mask-8_2_">
		<g class="st21">
			<ellipse id="path-7_3_" class="st1" cx="174.7" cy="174.7" rx="174.7" ry="174.7"/>
		</g>
	</mask>
	<rect id="Shape_13_" x="174.7" y="173.2" class="st22" width="174.7" height="297.3"/>
</g>
<defs>
	<filter id="Adobe_OpacityMaskFilter_9_" filterUnits="userSpaceOnUse" x="1241" y="616" width="158" height="354">
		<feColorMatrix  type="matrix" values="1 0 0 0 0  0 1 0 0 0  0 0 1 0 0  0 0 0 1 0"/>
	</filter>
</defs>
<mask maskUnits="userSpaceOnUse" x="1241" y="616" width="158" height="354" id="mask-2_11_">
	<g class="st23">
		<rect id="path-1_12_" class="st1" width="1600" height="1200"/>
	</g>
</mask>
<path id="Shape_15_" class="st24" d="M1394.5,781.5c-2.5,0-4.5-2-4.5-4.5s2-4.5,4.5-4.5s4.5,2,4.5,4.5S1397,781.5,1394.5,781.5z
	 M1394.5,750.2c-2.5,0-4.5-2-4.5-4.5s2-4.5,4.5-4.5s4.5,2,4.5,4.5S1397,750.2,1394.5,750.2z M1394.5,718.9c-2.5,0-4.5-2-4.5-4.5
	c0-2.5,2-4.5,4.5-4.5s4.5,2,4.5,4.5C1399,716.9,1397,718.9,1394.5,718.9z M1394.5,687.6c-2.5,0-4.5-2-4.5-4.5s2-4.5,4.5-4.5
	s4.5,2,4.5,4.5S1397,687.6,1394.5,687.6z M1394.5,656.3c-2.5,0-4.5-2-4.5-4.5c0-2.5,2-4.5,4.5-4.5s4.5,2,4.5,4.5
	C1399,654.3,1397,656.3,1394.5,656.3z M1394.5,624.9c-2.5,0-4.5-2-4.5-4.5s2-4.5,4.5-4.5s4.5,2,4.5,4.5S1397,624.9,1394.5,624.9z
	 M1365,781.5c-2.5,0-4.5-2-4.5-4.5s2-4.5,4.5-4.5s4.5,2,4.5,4.5S1367.4,781.5,1365,781.5z M1365,750.2c-2.5,0-4.5-2-4.5-4.5
	s2-4.5,4.5-4.5s4.5,2,4.5,4.5S1367.4,750.2,1365,750.2z M1365,718.9c-2.5,0-4.5-2-4.5-4.5c0-2.5,2-4.5,4.5-4.5s4.5,2,4.5,4.5
	C1369.5,716.9,1367.4,718.9,1365,718.9z M1365,687.6c-2.5,0-4.5-2-4.5-4.5s2-4.5,4.5-4.5s4.5,2,4.5,4.5S1367.4,687.6,1365,687.6z
	 M1365,656.3c-2.5,0-4.5-2-4.5-4.5c0-2.5,2-4.5,4.5-4.5s4.5,2,4.5,4.5C1369.5,654.3,1367.4,656.3,1365,656.3z M1365,624.9
	c-2.5,0-4.5-2-4.5-4.5s2-4.5,4.5-4.5s4.5,2,4.5,4.5S1367.4,624.9,1365,624.9z M1335.4,781.5c-2.5,0-4.5-2-4.5-4.5s2-4.5,4.5-4.5
	s4.5,2,4.5,4.5S1337.9,781.5,1335.4,781.5z M1335.4,750.2c-2.5,0-4.5-2-4.5-4.5s2-4.5,4.5-4.5s4.5,2,4.5,4.5
	S1337.9,750.2,1335.4,750.2z M1335.4,718.9c-2.5,0-4.5-2-4.5-4.5c0-2.5,2-4.5,4.5-4.5s4.5,2,4.5,4.5
	C1339.9,716.9,1337.9,718.9,1335.4,718.9z M1335.4,687.6c-2.5,0-4.5-2-4.5-4.5s2-4.5,4.5-4.5s4.5,2,4.5,4.5
	S1337.9,687.6,1335.4,687.6z M1335.4,656.3c-2.5,0-4.5-2-4.5-4.5c0-2.5,2-4.5,4.5-4.5s4.5,2,4.5,4.5
	C1339.9,654.3,1337.9,656.3,1335.4,656.3z M1335.4,624.9c-2.5,0-4.5-2-4.5-4.5s2-4.5,4.5-4.5s4.5,2,4.5,4.5
	S1337.9,624.9,1335.4,624.9z M1304.6,781.5c-2.5,0-4.5-2-4.5-4.5s2-4.5,4.5-4.5s4.5,2,4.5,4.5S1307.1,781.5,1304.6,781.5z
	 M1304.6,750.2c-2.5,0-4.5-2-4.5-4.5s2-4.5,4.5-4.5s4.5,2,4.5,4.5S1307.1,750.2,1304.6,750.2z M1304.6,718.9c-2.5,0-4.5-2-4.5-4.5
	c0-2.5,2-4.5,4.5-4.5s4.5,2,4.5,4.5C1309.1,716.9,1307.1,718.9,1304.6,718.9z M1304.6,687.6c-2.5,0-4.5-2-4.5-4.5s2-4.5,4.5-4.5
	s4.5,2,4.5,4.5S1307.1,687.6,1304.6,687.6z M1304.6,656.3c-2.5,0-4.5-2-4.5-4.5c0-2.5,2-4.5,4.5-4.5s4.5,2,4.5,4.5
	C1309.1,654.3,1307.1,656.3,1304.6,656.3z M1304.6,624.9c-2.5,0-4.5-2-4.5-4.5s2-4.5,4.5-4.5s4.5,2,4.5,4.5
	S1307.1,624.9,1304.6,624.9z M1275,781.5c-2.5,0-4.5-2-4.5-4.5s2-4.5,4.5-4.5s4.5,2,4.5,4.5S1277.5,781.5,1275,781.5z M1275,750.2
	c-2.5,0-4.5-2-4.5-4.5s2-4.5,4.5-4.5s4.5,2,4.5,4.5S1277.5,750.2,1275,750.2z M1275,718.9c-2.5,0-4.5-2-4.5-4.5c0-2.5,2-4.5,4.5-4.5
	s4.5,2,4.5,4.5C1279.5,716.9,1277.5,718.9,1275,718.9z M1275,687.6c-2.5,0-4.5-2-4.5-4.5s2-4.5,4.5-4.5s4.5,2,4.5,4.5
	S1277.5,687.6,1275,687.6z M1275,656.3c-2.5,0-4.5-2-4.5-4.5c0-2.5,2-4.5,4.5-4.5s4.5,2,4.5,4.5
	C1279.5,654.3,1277.5,656.3,1275,656.3z M1275,624.9c-2.5,0-4.5-2-4.5-4.5s2-4.5,4.5-4.5s4.5,2,4.5,4.5S1277.5,624.9,1275,624.9z
	 M1245.5,781.5c-2.5,0-4.5-2-4.5-4.5s2-4.5,4.5-4.5s4.5,2,4.5,4.5S1248,781.5,1245.5,781.5z M1245.5,750.2c-2.5,0-4.5-2-4.5-4.5
	s2-4.5,4.5-4.5s4.5,2,4.5,4.5S1248,750.2,1245.5,750.2z M1245.5,718.9c-2.5,0-4.5-2-4.5-4.5c0-2.5,2-4.5,4.5-4.5s4.5,2,4.5,4.5
	C1250,716.9,1248,718.9,1245.5,718.9z M1245.5,687.6c-2.5,0-4.5-2-4.5-4.5s2-4.5,4.5-4.5s4.5,2,4.5,4.5S1248,687.6,1245.5,687.6z
	 M1245.5,656.3c-2.5,0-4.5-2-4.5-4.5c0-2.5,2-4.5,4.5-4.5s4.5,2,4.5,4.5C1250,654.3,1248,656.3,1245.5,656.3z M1245.5,624.9
	c-2.5,0-4.5-2-4.5-4.5s2-4.5,4.5-4.5s4.5,2,4.5,4.5S1248,624.9,1245.5,624.9z M1394.5,970c-2.5,0-4.5-2-4.5-4.5s2-4.5,4.5-4.5
	s4.5,2,4.5,4.5S1397,970,1394.5,970z M1394.5,938.7c-2.5,0-4.5-2-4.5-4.5c0-2.5,2-4.5,4.5-4.5s4.5,2,4.5,4.5
	C1399,936.7,1397,938.7,1394.5,938.7z M1394.5,907.4c-2.5,0-4.5-2-4.5-4.5s2-4.5,4.5-4.5s4.5,2,4.5,4.5S1397,907.4,1394.5,907.4z
	 M1394.5,876.1c-2.5,0-4.5-2-4.5-4.5c0-2.5,2-4.5,4.5-4.5s4.5,2,4.5,4.5C1399,874.1,1397,876.1,1394.5,876.1z M1394.5,844.8
	c-2.5,0-4.5-2-4.5-4.5s2-4.5,4.5-4.5s4.5,2,4.5,4.5S1397,844.8,1394.5,844.8z M1394.5,813.4c-2.5,0-4.5-2-4.5-4.5s2-4.5,4.5-4.5
	s4.5,2,4.5,4.5S1397,813.4,1394.5,813.4z M1365,970c-2.5,0-4.5-2-4.5-4.5s2-4.5,4.5-4.5s4.5,2,4.5,4.5S1367.4,970,1365,970z
	 M1365,938.7c-2.5,0-4.5-2-4.5-4.5c0-2.5,2-4.5,4.5-4.5s4.5,2,4.5,4.5C1369.5,936.7,1367.4,938.7,1365,938.7z M1365,907.4
	c-2.5,0-4.5-2-4.5-4.5s2-4.5,4.5-4.5s4.5,2,4.5,4.5S1367.4,907.4,1365,907.4z M1365,876.1c-2.5,0-4.5-2-4.5-4.5c0-2.5,2-4.5,4.5-4.5
	s4.5,2,4.5,4.5C1369.5,874.1,1367.4,876.1,1365,876.1z M1365,844.8c-2.5,0-4.5-2-4.5-4.5s2-4.5,4.5-4.5s4.5,2,4.5,4.5
	S1367.4,844.8,1365,844.8z M1365,813.4c-2.5,0-4.5-2-4.5-4.5s2-4.5,4.5-4.5s4.5,2,4.5,4.5S1367.4,813.4,1365,813.4z M1335.4,970
	c-2.5,0-4.5-2-4.5-4.5s2-4.5,4.5-4.5s4.5,2,4.5,4.5S1337.9,970,1335.4,970z M1335.4,938.7c-2.5,0-4.5-2-4.5-4.5c0-2.5,2-4.5,4.5-4.5
	s4.5,2,4.5,4.5C1339.9,936.7,1337.9,938.7,1335.4,938.7z M1335.4,907.4c-2.5,0-4.5-2-4.5-4.5s2-4.5,4.5-4.5s4.5,2,4.5,4.5
	S1337.9,907.4,1335.4,907.4z M1335.4,876.1c-2.5,0-4.5-2-4.5-4.5c0-2.5,2-4.5,4.5-4.5s4.5,2,4.5,4.5
	C1339.9,874.1,1337.9,876.1,1335.4,876.1z M1335.4,844.8c-2.5,0-4.5-2-4.5-4.5s2-4.5,4.5-4.5s4.5,2,4.5,4.5
	S1337.9,844.8,1335.4,844.8z M1335.4,813.4c-2.5,0-4.5-2-4.5-4.5s2-4.5,4.5-4.5s4.5,2,4.5,4.5S1337.9,813.4,1335.4,813.4z
	 M1304.6,970c-2.5,0-4.5-2-4.5-4.5s2-4.5,4.5-4.5s4.5,2,4.5,4.5S1307.1,970,1304.6,970z M1304.6,938.7c-2.5,0-4.5-2-4.5-4.5
	c0-2.5,2-4.5,4.5-4.5s4.5,2,4.5,4.5C1309.1,936.7,1307.1,938.7,1304.6,938.7z M1304.6,907.4c-2.5,0-4.5-2-4.5-4.5s2-4.5,4.5-4.5
	s4.5,2,4.5,4.5S1307.1,907.4,1304.6,907.4z M1304.6,876.1c-2.5,0-4.5-2-4.5-4.5c0-2.5,2-4.5,4.5-4.5s4.5,2,4.5,4.5
	C1309.1,874.1,1307.1,876.1,1304.6,876.1z M1304.6,844.8c-2.5,0-4.5-2-4.5-4.5s2-4.5,4.5-4.5s4.5,2,4.5,4.5
	S1307.1,844.8,1304.6,844.8z M1304.6,813.4c-2.5,0-4.5-2-4.5-4.5s2-4.5,4.5-4.5s4.5,2,4.5,4.5S1307.1,813.4,1304.6,813.4z M1275,970
	c-2.5,0-4.5-2-4.5-4.5s2-4.5,4.5-4.5s4.5,2,4.5,4.5S1277.5,970,1275,970z M1275,938.7c-2.5,0-4.5-2-4.5-4.5c0-2.5,2-4.5,4.5-4.5
	s4.5,2,4.5,4.5C1279.5,936.7,1277.5,938.7,1275,938.7z M1275,907.4c-2.5,0-4.5-2-4.5-4.5s2-4.5,4.5-4.5s4.5,2,4.5,4.5
	S1277.5,907.4,1275,907.4z M1275,876.1c-2.5,0-4.5-2-4.5-4.5c0-2.5,2-4.5,4.5-4.5s4.5,2,4.5,4.5
	C1279.5,874.1,1277.5,876.1,1275,876.1z M1275,844.8c-2.5,0-4.5-2-4.5-4.5s2-4.5,4.5-4.5s4.5,2,4.5,4.5S1277.5,844.8,1275,844.8z
	 M1275,813.4c-2.5,0-4.5-2-4.5-4.5s2-4.5,4.5-4.5s4.5,2,4.5,4.5S1277.5,813.4,1275,813.4z M1245.5,970c-2.5,0-4.5-2-4.5-4.5
	s2-4.5,4.5-4.5s4.5,2,4.5,4.5S1248,970,1245.5,970z M1245.5,938.7c-2.5,0-4.5-2-4.5-4.5c0-2.5,2-4.5,4.5-4.5s4.5,2,4.5,4.5
	C1250,936.7,1248,938.7,1245.5,938.7z M1245.5,907.4c-2.5,0-4.5-2-4.5-4.5s2-4.5,4.5-4.5s4.5,2,4.5,4.5S1248,907.4,1245.5,907.4z
	 M1245.5,876.1c-2.5,0-4.5-2-4.5-4.5c0-2.5,2-4.5,4.5-4.5s4.5,2,4.5,4.5C1250,874.1,1248,876.1,1245.5,876.1z M1245.5,844.8
	c-2.5,0-4.5-2-4.5-4.5s2-4.5,4.5-4.5s4.5,2,4.5,4.5S1248,844.8,1245.5,844.8z M1245.5,813.4c-2.5,0-4.5-2-4.5-4.5s2-4.5,4.5-4.5
	s4.5,2,4.5,4.5S1248,813.4,1245.5,813.4z"/>
<g transform="translate(483.000000, 388.000000)" class="st11">
	<ellipse class="st25" cx="223.7" cy="223.7" rx="223.7" ry="223.7"/>
	<ellipse class="st18" cx="288.1" cy="144" rx="98.1" ry="98"/>
</g>
<defs>
	<filter id="Adobe_OpacityMaskFilter_10_" filterUnits="userSpaceOnUse" x="360" y="152" width="141" height="141">
		<feColorMatrix  type="matrix" values="1 0 0 0 0  0 1 0 0 0  0 0 1 0 0  0 0 0 1 0"/>
	</filter>
</defs>
<mask maskUnits="userSpaceOnUse" x="360" y="152" width="141" height="141" id="mask-2_13_">
	<g class="st26">
		<rect id="path-1_14_" class="st1" width="1600" height="1200"/>
	</g>
</mask>
<circle id="Shape_17_" class="st27" cx="430.5" cy="222.5" r="70.5"/>
<defs>
	<filter id="Adobe_OpacityMaskFilter_11_" filterUnits="userSpaceOnUse" x="1021" y="258" width="141" height="141">
		<feColorMatrix  type="matrix" values="1 0 0 0 0  0 1 0 0 0  0 0 1 0 0  0 0 0 1 0"/>
	</filter>
</defs>
<mask maskUnits="userSpaceOnUse" x="1021" y="258" width="141" height="141" id="mask-2_14_">
	<g class="st28">
		<rect id="path-1_15_" class="st1" width="1600" height="1200"/>
	</g>
</mask>
<circle id="Shape_18_" class="st29" cx="1091.5" cy="328.5" r="70.5"/>
<defs>
	<filter id="Adobe_OpacityMaskFilter_12_" filterUnits="userSpaceOnUse" x="274" y="100" width="52" height="52">
		<feColorMatrix  type="matrix" values="1 0 0 0 0  0 1 0 0 0  0 0 1 0 0  0 0 0 1 0"/>
	</filter>
</defs>
<mask maskUnits="userSpaceOnUse" x="274" y="100" width="52" height="52" id="mask-2_15_">
	<g class="st30">
		<rect id="path-1_16_" class="st1" width="1600" height="1200"/>
	</g>
</mask>
<circle id="Shape_19_" class="st31" cx="300" cy="126" r="26"/>
<defs>
	<filter id="Adobe_OpacityMaskFilter_13_" filterUnits="userSpaceOnUse" x="292" y="332" width="69" height="69">
		<feColorMatrix  type="matrix" values="1 0 0 0 0  0 1 0 0 0  0 0 1 0 0  0 0 0 1 0"/>
	</filter>
</defs>
<mask maskUnits="userSpaceOnUse" x="292" y="332" width="69" height="69" id="mask-2_16_">
	<g class="st32">
		<rect id="path-1_17_" class="st1" width="1600" height="1200"/>
	</g>
</mask>
<circle id="Shape_20_" class="st33" cx="326.5" cy="366.5" r="34.5"/>
</svg>
