<?xml version="1.0" encoding="utf-8"?>
<!-- Generator: Adobe Illustrator 24.3.0, SVG Export Plug-In . SVG Version: 6.00 Build 0)  -->
<svg version="1.1" id="Layer_1" xmlns="http://www.w3.org/2000/svg" xmlns:xlink="http://www.w3.org/1999/xlink" x="0px" y="0px"
	 viewBox="0 0 1600 1200" style="enable-background:new 0 0 1600 1200;" xml:space="preserve">
<style type="text/css">
	.st0{opacity:0.1;fill:#EFF3F0;}
	.st1{opacity:0.1;fill:#E0436B;}
	.st2{opacity:0.1;fill:#7252A4;}
	.st3{opacity:0.1;fill:#F0C933;}
	.st4{opacity:0.1;fill:#453264;}
	.st5{opacity:0.1;fill:#0F90D1;}
	.st6{opacity:0.1;fill:#C4C8D4;}
	.st7{opacity:0.1;fill:#6759AE;}
</style>
<desc>Created with Sketch.</desc>
<path class="st0" d="M388.2,1000.6c176.6,161.7,428.2,126.2,607.9-63s143.7-485.4-64.8-607.7s-438.3-118-607.9,63
	S211.7,838.8,388.2,1000.6z"/>
<path class="st0" d="M1398.3,150c95.3,52.2,213.2,56.9,283.1-29.4c69.9-86.3,56.4-213-30.1-283c-86.5-70-206.8-36.8-283.1,29.4
	S1303,97.8,1398.3,150z"/>
<path class="st0" d="M1750.3,737.1c118.6,96,118.6,253.6,40.9,388.4c-77.8,134.9-209.8,259.1-301.9,372.8
	c-92.1,113.7-262.3,142.9-388.5,40.8s-145.8-284.8-40.9-388.4c104.9-103.7,189.6-260,301.9-372.8S1631.8,641.1,1750.3,737.1z"/>
<path class="st1" d="M162.9,394.7c94.5,76.6,222.9,59.2,296.1-31.1s61.4-239.7-31.1-296.1S199.2-10.3,131.8,98.6
	S68.4,318.1,162.9,394.7z"/>
<path class="st1" d="M453,1085.2c30,24.3,70.7,18.8,93.9-9.9s19.5-76-9.8-93.9c-29.3-17.9-72.5-24.7-93.9,9.9S423,1060.9,453,1085.2
	z"/>
<path class="st1" d="M49.4,113.3c19.7,15.9,46.4,12.3,61.7-6.5c15.2-18.8,12.8-49.9-6.5-61.7C85.4,33.4,57,28.9,43,51.6
	C28.9,74.3,29.7,97.3,49.4,113.3z"/>
<path class="st1" d="M587.1,995.9c-11.4,4.3-15.6,16.4-11.1,28.9c4.4,12.5,18.6,17.7,28.9,11.1c10.3-6.6,15.4-17.1,11.1-28.9
	C611.7,995.2,598.4,991.7,587.1,995.9z"/>
<path class="st2" d="M1247.4,205.5c49.7,40.2,117.1,31.1,155.6-16.4s32.3-126-16.3-155.6c-48.6-29.6-120.2-40.9-155.6,16.4
	C1195.7,107.2,1197.8,165.3,1247.4,205.5z"/>
<path class="st2" d="M511.4,397.3c19.7,15.9,46.4,12.3,61.7-6.5c15.2-18.8,12.8-49.9-6.5-61.7s-47.6-16.2-61.7,6.5
	C490.9,358.3,491.7,381.3,511.4,397.3z"/>
<path class="st2" d="M599.5,401.6c9,7.2,21.1,5.6,28-3c6.9-8.6,5.8-22.7-2.9-28c-8.8-5.3-21.7-7.4-28,3
	C590.1,383.9,590.5,394.3,599.5,401.6z"/>
<path class="st2" d="M926.3,1259.9c32.5,26.4,91.9-6.6,128.4-42.3c36.5-35.7,31.4-99.5-13.9-129.5s-97.6-26.1-129.5,13.4
	C879.4,1140.9,893.8,1233.5,926.3,1259.9z"/>
<path class="st3" d="M347.8,826.3c72,66,174.6,51.5,247.9-25.7c73.3-77.2,58.6-197.9-26.4-247.9s-178.8-48.1-247.9,25.7
	S275.7,760.3,347.8,826.3z"/>
<path class="st3" d="M1420.9,783c27.3,25,66.1,19.5,93.9-9.7c27.8-29.2,22.2-74.9-10-93.8c-32.2-18.9-67.7-18.2-93.9,9.7
	C1384.7,717.1,1393.6,758,1420.9,783z"/>
<path class="st3" d="M575.2,873.1c9,8.2,21.7,6.4,30.8-3.2c9.1-9.6,7.3-24.6-3.3-30.8c-10.6-6.2-22.2-6-30.8,3.2
	S566.2,864.9,575.2,873.1z"/>
<path class="st3" d="M1490.2,842.1c9,8.2,21.7,6.4,30.8-3.2c9.1-9.6,7.3-24.6-3.3-30.8c-10.6-6.2-22.2-6-30.8,3.2
	C1478.3,820.4,1481.2,833.9,1490.2,842.1z"/>
<path class="st3" d="M609.1,818.5c4.5,4.1,10.9,3.2,15.4-1.6c4.6-4.8,3.6-12.3-1.6-15.4c-5.3-3.1-11.1-3-15.4,1.6
	C603.1,807.7,604.6,814.4,609.1,818.5z"/>
<path class="st4" d="M874.9,560c27.3,25,66.1,19.5,93.9-9.7c27.8-29.2,22.2-74.9-10-93.8c-32.2-18.9-67.7-18.2-93.9,9.7
	C838.7,494.1,847.6,535,874.9,560z"/>
<path class="st4" d="M127.2,496.1c9,8.2,21.7,6.4,30.8-3.2c9.1-9.6,7.3-24.6-3.3-30.8c-10.6-6.2-22.2-6-30.8,3.2
	C115.3,474.4,118.2,487.9,127.2,496.1z"/>
<path class="st4" d="M1383.2,999.1c9,8.2,21.7,6.4,30.8-3.2c9.1-9.6,7.3-24.6-3.3-30.8c-10.6-6.2-22.2-6-30.8,3.2
	C1371.3,977.4,1374.2,990.9,1383.2,999.1z"/>
<path class="st4" d="M859.4,592c-6.2,10.5-1.7,22.6,9.5,29.5c11.3,6.9,25.6,2,29.5-9.6c3.9-11.6,1.2-23-9.5-29.5
	C878.1,575.9,865.6,581.6,859.4,592z"/>
<path class="st5" d="M1541.9,383c27.3,25,66.1,19.5,93.9-9.7c27.8-29.2,22.2-74.9-10-93.8c-32.2-18.9-67.7-18.2-93.9,9.7
	C1505.7,317.1,1514.6,358,1541.9,383z"/>
<path class="st5" d="M-63.1,1353.3c106.7,86.4,276.9,66.4,385.8-40.2c108.8-106.6,93.7-296.6-40.9-385.7S-8.8,850-104,967.6
	S-169.8,1266.9-63.1,1353.3z"/>
<path class="st5" d="M1490.9,370.5c86.5,70,86.5,185,29.8,283.4s-153.1,189-220.3,272s-191.4,104.3-283.4,29.8
	s-106.4-207.7-29.8-283.4s138.4-189.7,220.3-272S1404.5,300.5,1490.9,370.5z"/>
<path class="st6" d="M1056.6,348.7c36.8,33.7,89.3,26.3,126.8-13.1c37.5-39.5,30-101.2-13.5-126.7c-43.5-25.5-91.4-24.6-126.8,13.1
	C1007.8,259.7,1019.8,315,1056.6,348.7z"/>
<path class="st6" d="M-220.9,1017.3c100.9,92.4,244.7,72.1,347.4-36C229.2,873.2,208.7,704,89.5,634s-250.5-67.4-347.4,36
	S-321.8,924.9-220.9,1017.3z"/>
<path class="st6" d="M1510.1,1402.3c100.9,92.4,244.7,72.1,347.4-36c102.7-108.1,82.1-277.3-37-347.3
	c-119.1-69.9-250.5-67.4-347.4,36C1376.2,1158.5,1409.2,1309.9,1510.1,1402.3z"/>
<path class="st0" d="M1437.6,250.5c15.5,8.5,34.8,9.2,46.2-4.8c11.4-14.1,9.2-34.8-4.9-46.2c-14.1-11.4-33.7-6-46.2,4.8
	C1420.2,215.1,1422,242,1437.6,250.5z"/>
<path class="st0" d="M1164.7,76.2c9.4,5.2,21.1,5.6,28-2.9s5.6-21.1-3-28c-8.5-6.9-20.4-3.6-28,2.9
	C1154.2,54.7,1155.3,71,1164.7,76.2z"/>
<path class="st7" d="M1074.9-252.3c86.5,70,99.8,196.9,29.8,283.4s-162.5,180-220.3,272c-57.8,92-205.4,110.3-283.4,29.8
	s-107.9-187-29.8-283.4s143.5-177.2,220.3-272S988.4-322.4,1074.9-252.3z"/>
</svg>
