<svg width="512" height="512" viewBox="0 0 512 512" fill="none" xmlns="http://www.w3.org/2000/svg">
<path d="M0 139.37C0 80.8876 0 51.6465 15.0631 31.2527C19.6227 25.0795 25.0795 19.6227 31.2527 15.0631C51.6465 0 80.8876 0 139.37 0H372.63C431.112 0 460.354 0 480.747 15.0631C486.92 19.6227 492.377 25.0795 496.937 31.2527C512 51.6465 512 80.8876 512 139.37V372.63C512 431.112 512 460.354 496.937 480.747C492.377 486.92 486.92 492.377 480.747 496.937C460.354 512 431.112 512 372.63 512H139.37C80.8876 512 51.6465 512 31.2527 496.937C25.0795 492.377 19.6227 486.92 15.0631 480.747C0 460.354 0 431.112 0 372.63V139.37Z" fill="#EA5F5F"/>
<path fill-rule="evenodd" clip-rule="evenodd" d="M372.63 17H139.37C109.745 17 88.9092 17.0239 72.8813 18.7816C57.1786 20.5036 48.1463 23.7196 41.3527 28.7375C36.5425 32.2904 32.2904 36.5425 28.7375 41.3527C23.7196 48.1463 20.5036 57.1786 18.7816 72.8813C17.0239 88.9092 17 109.745 17 139.37V372.63C17 402.255 17.0239 423.091 18.7816 439.119C20.5036 454.821 23.7196 463.854 28.7375 470.647C32.2904 475.458 36.5425 479.71 41.3527 483.263C48.1463 488.28 57.1786 491.496 72.8813 493.218C88.9092 494.976 109.745 495 139.37 495H372.63C402.255 495 423.091 494.976 439.119 493.218C454.821 491.496 463.854 488.28 470.647 483.263C475.458 479.71 479.71 475.458 483.263 470.647C488.28 463.854 491.496 454.821 493.218 439.119C494.976 423.091 495 402.255 495 372.63V139.37C495 109.745 494.976 88.9092 493.218 72.8813C491.496 57.1786 488.28 48.1463 483.263 41.3527C479.71 36.5425 475.458 32.2904 470.647 28.7375C463.854 23.7196 454.821 20.5036 439.119 18.7816C423.091 17.0239 402.255 17 372.63 17ZM15.0631 31.2527C0 51.6465 0 80.8876 0 139.37V372.63C0 431.112 0 460.354 15.0631 480.747C19.6227 486.921 25.0795 492.377 31.2527 496.937C51.6465 512 80.8876 512 139.37 512H372.63C431.112 512 460.354 512 480.747 496.937C486.921 492.377 492.377 486.921 496.937 480.747C512 460.354 512 431.112 512 372.63V139.37C512 80.8876 512 51.6465 496.937 31.2527C492.377 25.0795 486.921 19.6227 480.747 15.0631C460.354 0 431.112 0 372.63 0H139.37C80.8876 0 51.6465 0 31.2527 15.0631C25.0795 19.6227 19.6227 25.0795 15.0631 31.2527Z" fill="#B84A4A"/>
<path d="M0.293945 98.0911L446 445.999L98.0921 0.292969C65.7825 1.09096 46.1553 4.05469 31.2526 15.062C25.0794 19.6216 19.6226 25.0784 15.063 31.2516C4.05567 46.1543 1.09193 65.7815 0.293945 98.0911Z" fill="#FDFFFF"/>
</svg>
